<svg xmlns="http://www.w3.org/2000/svg" width="48" height="48" viewBox="0 0 48 48">
  <g id="Group_2324" data-name="Group 2324" transform="translate(-8 -17)">
    <g id="Group_2316" data-name="Group 2316" transform="translate(-1497 -5526)">
      <path id="Polygon_1" data-name="Polygon 1" d="M9.859,5.905a4,4,0,0,1,6.906,0L23.1,16.746a4,4,0,0,1-3.453,6.019H6.973A4,4,0,0,1,3.52,16.746Z" transform="translate(1541.766 5547) rotate(90)" fill="#fff"/>
      <path id="Polygon_2" data-name="Polygon 2" d="M10.88,5.759a4,4,0,0,1,6.871,0l7.272,12.191A4,4,0,0,1,21.587,24H7.043a4,4,0,0,1-3.435-6.049Z" transform="translate(1543 5558.422) rotate(90)" fill="#06dffc" opacity="0.496"/>
    </g>
    <rect id="Rectangle_1282" data-name="Rectangle 1282" width="48" height="48" transform="translate(8 17)" fill="none"/>
  </g>
</svg>
