<svg id="Layer_1" data-name="Layer 1" xmlns="http://www.w3.org/2000/svg" viewBox="0 0 162.2 52.4"><defs><style>.cls-1{fill:#fff;}</style></defs><title>Beat-White</title><path class="cls-1" d="M0,5H14.2c11.2,0,16.1,6.3,16.1,13.2a11.58,11.58,0,0,1-6.6,10.9v.2A12.6,12.6,0,0,1,33.7,42c0,8.3-6.2,15.2-18.1,15.2H0ZM13.2,27.2c5.9,0,8.9-3,8.9-7.7,0-4.4-2.7-7.6-8.9-7.6H8.3V27.2ZM15,50.3c6.5,0,10.4-2.4,10.4-8.2,0-5-3.7-8-9.5-8H8.3V50.3Z" transform="translate(0 -4.8)"/><path class="cls-1" d="M44,5H71.6l-2.4,7H52.3V27H69.2v7H52.3V50H71.9v7H44Z" transform="translate(0 -4.8)"/><path class="cls-1" d="M97.3,4.8h6.4l20.7,52.4h-8.9l-5.1-13.4H91L86,57.2H77.3ZM107.7,37l-4.3-11.9c-1.4-4.3-2.2-6.6-2.8-8.4h-.2c-.5,1.8-1.3,4.2-2.9,8.4L93.4,37Z" transform="translate(0 -4.8)"/><path class="cls-1" d="M137.3,12.1H122.2V5h40l-2.4,7H145.6V57.1h-8.3v-45Z" transform="translate(0 -4.8)"/></svg>