<svg xmlns="http://www.w3.org/2000/svg" viewBox="0 0 57.46 31.98"><defs><style>.cls-1{isolation:isolate;}.cls-2{fill:#fff;}</style></defs><title>BEATFlow_name</title><g id="Layer_2" data-name="Layer 2"><g id="Layer_1-2" data-name="Layer 1"><g id="Group_1691-3" data-name="Group 1691-3"><g id="Group_1689-3" data-name="Group 1689-3"><g class="cls-1"><path class="cls-2" d="M0,.06H4.79c4,0,5.85,2.25,5.85,4.81A4.29,4.29,0,0,1,8.19,8.94V9a4.6,4.6,0,0,1,3.66,4.61c0,3.12-2.25,5.45-6.51,5.45H0ZM4.5,8.31c2.33,0,3.58-1.19,3.58-3.09s-1-3-3.52-3h-2V8.31Zm.69,8.62c2.48,0,4-.95,4-3.29,0-2-1.47-3.2-3.75-3.2H2.57v6.49Z"/><path class="cls-2" d="M15.71.06h9.61l-.78,2.19H18.28v6h6.2v2.19h-6.2v6.4h7.15v2.19H15.71Z"/><path class="cls-2" d="M34.74,0h1.91L44,19.06H41.26l-1.84-5H32l-1.81,5H27.5Zm3.87,12L36.82,7,35.75,3.84h0c-.21.69-.52,1.58-1.1,3.2L32.81,12Z"/><path class="cls-2" d="M48.87,2.25H43.39V.06H57.46l-.77,2.19H51.44V19.06H48.87Z"/></g><g class="cls-1"><path class="cls-2" d="M0,23.71H4.14l-.32.94H1.11v2.58H3.76v.94H1.11v3.68H0Z"/><path class="cls-2" d="M6.48,23.1H7.56v7.3c0,.44.14.58.44.58a1.23,1.23,0,0,0,.37-.08l.22.86a2.56,2.56,0,0,1-.9.17,1.09,1.09,0,0,1-1.21-1.22Z"/><path class="cls-2" d="M10.29,28.93a2.79,2.79,0,1,1,5.55,0,2.79,2.79,0,1,1-5.55,0Zm4.43,0c0-1.26-.62-2.17-1.65-2.17s-1.65.91-1.65,2.17.62,2.15,1.64,2.15S14.72,30.17,14.72,28.93Z"/><path class="cls-2" d="M17.45,26h1.14l1.33,4.44h0L21.25,26h1l1.36,4.45h0L24.9,26H26l-2,5.88H23.1l-1.35-4.45h0l-1.35,4.45h-.93Z"/></g></g></g></g></g></svg>