<svg xmlns="http://www.w3.org/2000/svg" width="24" height="24" viewBox="0 0 24 24">
  <g id="Group_1802" data-name="Group 1802" transform="translate(-169 -81)">
    <g id="Group_802" data-name="Group 802" transform="translate(-44 9)">
      <g id="Group_795" data-name="Group 795" transform="translate(220 79)">
        <g id="noun_down_1920902" transform="translate(0 3)">
          <path id="Path_397" data-name="Path 397" d="M2.5,24.045a.6.6,0,0,1,.169-.421.585.585,0,0,1,.832,0l4,3.992,3.992-3.992a.588.588,0,1,1,.832.832l-4.4,4.413a.58.58,0,0,1-.421.169.626.626,0,0,1-.421-.169L2.669,24.456A.573.573,0,0,1,2.5,24.045Z" transform="translate(-2.5 -23.45)" fill="#75787b"/>
        </g>
      </g>
    </g>
    <rect id="Rectangle_673" data-name="Rectangle 673" width="24" height="24" transform="translate(169 81)" fill="none"/>
  </g>
</svg>
