<svg xmlns="http://www.w3.org/2000/svg" xmlns:xlink="http://www.w3.org/1999/xlink" width="24" height="24" viewBox="0 0 24 24">
  <defs>
    <clipPath id="clip-path">
      <path id="Path_639" data-name="Path 639" d="M2-17H18a2.061,2.061,0,0,1,2,2.118v10.59a2.061,2.061,0,0,1-2,2.118H4.324L0,1V-14.882A2.061,2.061,0,0,1,2-17Z" transform="translate(0 17)" fill="none" clip-rule="evenodd"/>
    </clipPath>
    <clipPath id="clip-path-2">
      <path id="Path_638" data-name="Path 638" d="M-2,4.415H22V-21H-2Z" transform="translate(2 21)" fill="none"/>
    </clipPath>
    <clipPath id="clip-path-3">
      <path id="Path_645" data-name="Path 645" d="M9-10h1.5v-4H9Z" transform="translate(-9 14)" fill="#fff" stroke="#707070" stroke-width="1" clip-rule="evenodd"/>
    </clipPath>
    <clipPath id="clip-path-4">
      <path id="Path_644" data-name="Path 644" d="M-2,3H16V-21H-2Z" transform="translate(2 21)" fill="#fff" stroke="#707070" stroke-width="1"/>
    </clipPath>
    <clipPath id="clip-path-5">
      <path id="Path_651" data-name="Path 651" d="M9-6.5h1.5V-8H9Z" transform="translate(-9 8)" fill="#78a8c7" clip-rule="evenodd"/>
    </clipPath>
    <clipPath id="clip-path-6">
      <path id="Path_650" data-name="Path 650" d="M-2-3H16V-21H-2Z" transform="translate(2 21)" fill="#78a8c7"/>
    </clipPath>
  </defs>
  <g id="Group_1454" data-name="Group 1454" transform="translate(-393 -642)">
    <g id="Group_1382" data-name="Group 1382" transform="translate(395 663)">
      <g id="Group_1371" data-name="Group 1371" transform="translate(0 -17)" clip-path="url(#clip-path)">
        <g id="Group_1370" data-name="Group 1370" transform="translate(-2 -4.236)" clip-path="url(#clip-path-2)">
          <g id="Group_1369" data-name="Group 1369" transform="translate(2 4.236)">
            <path id="Path_637" data-name="Path 637" d="M2,0H18a2.061,2.061,0,0,1,2,2.118v10.59a2.061,2.061,0,0,1-2,2.118H4.324L0,18V2.118A2.061,2.061,0,0,1,2,0Z" fill="none" stroke="#78a8c7" stroke-width="3"/>
          </g>
        </g>
      </g>
      <g id="Group_1376" data-name="Group 1376" transform="translate(9 -13)" clip-path="url(#clip-path-3)">
        <g id="Group_1375" data-name="Group 1375" transform="translate(-8.25 -7)" clip-path="url(#clip-path-4)">
          <g id="Group_1374" data-name="Group 1374" transform="translate(8.25 7)">
            <path id="Path_643" data-name="Path 643" d="M0,0H1.5V-4H0Z" transform="translate(0 4)" fill="#fff" stroke="#78a8c7" stroke-width="3"/>
          </g>
        </g>
      </g>
      <g id="Group_1381" data-name="Group 1381" transform="translate(9 -7.5)" clip-path="url(#clip-path-5)">
        <g id="Group_1380" data-name="Group 1380" transform="translate(-8.25 -9.75)" clip-path="url(#clip-path-6)">
          <g id="Group_1379" data-name="Group 1379" transform="translate(8.25 9.75)">
            <path id="Path_649" data-name="Path 649" d="M0-.5H1.5V-2H0Z" transform="translate(0 2)" fill="#78a8c7"/>
          </g>
        </g>
      </g>
    </g>
    <rect id="Rectangle_902" data-name="Rectangle 902" width="24" height="24" transform="translate(393 642)" fill="none"/>
  </g>
</svg>
