<svg xmlns="http://www.w3.org/2000/svg" width="24" height="24" viewBox="0 0 24 24">
  <g id="Group_1471" data-name="Group 1471" transform="translate(-931 -169)">
    <g id="Group_1" data-name="Group 1" transform="translate(894.109 169)">
      <g id="Ellipse_1" data-name="Ellipse 1" transform="translate(45.14 8.25)" fill="none" stroke="#78a8c7" stroke-miterlimit="10" stroke-width="1.5">
        <circle cx="3.75" cy="3.75" r="3.75" stroke="none"/>
        <circle cx="3.75" cy="3.75" r="3" fill="none"/>
      </g>
      <g id="Path_1" data-name="Path 1" fill="none" stroke-miterlimit="10">
        <path d="M58.24,13.939l-1.628-.9a6.488,6.488,0,0,0,0-2.072l1.628-.9a1.224,1.224,0,0,0,.477-1.708L57.09,5.647a1.331,1.331,0,0,0-1.777-.458l-1.625.9A7.9,7.9,0,0,0,51.818,5.05V3.25A1.277,1.277,0,0,0,50.517,2H47.265a1.276,1.276,0,0,0-1.3,1.25v1.8a7.882,7.882,0,0,0-1.87,1.042l-1.625-.9a1.331,1.331,0,0,0-1.777.458L39.065,8.353a1.224,1.224,0,0,0,.477,1.708l1.628.9a6.488,6.488,0,0,0,0,2.072l-1.628.9a1.224,1.224,0,0,0-.477,1.708l1.627,2.706a1.331,1.331,0,0,0,1.777.458l1.625-.9a7.882,7.882,0,0,0,1.87,1.042v1.8a1.276,1.276,0,0,0,1.3,1.25h3.252a1.277,1.277,0,0,0,1.3-1.25v-1.8a7.9,7.9,0,0,0,1.869-1.042l1.625.9a1.331,1.331,0,0,0,1.777-.458l1.627-2.706A1.224,1.224,0,0,0,58.24,13.939Z" stroke="none"/>
        <path d="M 50.31779861450195 20.5 L 50.31779861450195 18.95000076293945 L 50.31779861450195 17.92580986022949 L 51.27169799804688 17.55294036865234 C 51.81154632568359 17.34192085266113 52.32100677490234 17.05785942077637 52.78592681884766 16.70865058898926 L 53.56426620483398 16.12401962280273 L 54.41522598266602 16.59675025939941 L 55.89955139160156 17.42133712768555 L 57.28120803833008 15.1226921081543 L 55.88427734375 14.34764957427979 L 54.97964859008789 13.84574031829834 L 55.12737655639648 12.82180023193359 C 55.17368698120117 12.50082969665527 55.19525909423828 12.23970031738281 55.19525909423828 12 C 55.19525909423828 11.76029968261719 55.17368698120117 11.49917030334473 55.12737655639648 11.17819976806641 L 54.97964859008789 10.15425968170166 L 55.88427734375 9.652350425720215 L 57.28121185302734 8.877312660217285 L 55.8995475769043 6.578663349151611 L 54.41522598266602 7.403250217437744 L 53.56426620483398 7.875979900360107 L 52.78592681884766 7.2913498878479 C 52.32100677490234 6.942140102386475 51.81154632568359 6.658080101013184 51.27169799804688 6.447060108184814 L 50.31779861450195 6.074190139770508 L 50.31779861450195 5.050000190734863 L 50.31779861450195 3.5 L 47.46421813964844 3.5 L 47.46421813964844 5.050000190734863 L 47.46421813964844 6.074759960174561 L 46.50959777832031 6.44734001159668 C 45.96968841552734 6.658070087432861 45.46012878417969 6.94202995300293 44.99505615234375 7.2913498878479 L 44.21671676635742 7.875979900360107 L 43.36575698852539 7.403250217437744 L 41.88143539428711 6.578663349151611 L 40.49977111816406 8.877314567565918 L 41.89669799804688 9.652359962463379 L 42.80129623413086 10.1542501449585 L 42.65359878540039 11.17815971374512 C 42.6072883605957 11.49921989440918 42.58571624755859 11.7603702545166 42.58571624755859 12 C 42.58571624755859 12.2396297454834 42.6072883605957 12.50078010559082 42.65359878540039 12.82184028625488 L 42.80129623413086 13.8457498550415 L 41.89669799804688 14.34764003753662 L 40.49977111816406 15.12268543243408 L 41.88143920898438 17.42133712768555 L 43.36575698852539 16.59675025939941 L 44.21671676635742 16.12401962280273 L 44.99505615234375 16.70865058898926 C 45.46012878417969 17.05797004699707 45.96968841552734 17.3419303894043 46.50959777832031 17.55265998840332 L 47.46421813964844 17.92523956298828 L 47.46421813964844 18.95000076293945 L 47.46421813964844 20.5 L 50.31779861450195 20.5 M 50.51700592041016 22 L 47.26501846313477 22 C 46.54593658447266 22 45.96421813964844 21.44000053405762 45.96421813964844 20.75 L 45.96421813964844 18.95000076293945 C 45.28780746459961 18.68600082397461 44.66134643554688 18.33399963378906 44.09419631958008 17.90800094604492 L 42.46872711181641 18.81100082397461 C 42.2639274597168 18.92453956604004 42.04032135009766 18.97850799560547 41.81964874267578 18.97850799560547 C 41.36979293823242 18.97850799560547 40.93218231201172 18.75419807434082 40.69131851196289 18.35300064086914 L 39.0648078918457 15.64700031280518 C 38.70578765869141 15.04899978637695 38.91911697387695 14.28400039672852 39.54141616821289 13.93900012969971 L 41.16896820068359 13.03600025177002 C 41.12006759643555 12.69699954986572 41.08571624755859 12.35299968719482 41.08571624755859 12 C 41.08571624755859 11.64700031280518 41.12006759643555 11.30300045013428 41.16896820068359 10.96399974822998 L 39.54141616821289 10.06099987030029 C 38.91911697387695 9.715999603271484 38.70578765869141 8.951000213623047 39.0648078918457 8.352999687194824 L 40.69131851196289 5.646999835968018 C 40.93220520019531 5.245766162872314 41.36974716186523 5.021491527557373 41.81964874267578 5.021491527557373 C 42.04027938842773 5.021491527557373 42.26396560668945 5.075480937957764 42.46872711181641 5.189000129699707 L 44.09419631958008 6.092000007629395 C 44.66134643554688 5.665999889373779 45.28780746459961 5.314000129699707 45.96421813964844 5.050000190734863 L 45.96421813964844 3.25 C 45.96421813964844 2.559999942779541 46.54593658447266 2 47.26501846313477 2 L 50.51700592041016 2 C 51.23503875732422 2 51.81779861450195 2.559999942779541 51.81779861450195 3.25 L 51.81779861450195 5.050000190734863 C 52.49317932128906 5.314000129699707 53.11963653564453 5.665999889373779 53.68678665161133 6.092000007629395 L 55.312255859375 5.189000129699707 C 55.51705932617188 5.075459957122803 55.74066543579102 5.021491527557373 55.96133422851562 5.021491527557373 C 56.41119003295898 5.021491527557373 56.84879684448242 5.245802879333496 57.08966827392578 5.646999835968018 L 58.71617889404297 8.352999687194824 C 59.07518768310547 8.951000213623047 58.86186599731445 9.715999603271484 58.23956680297852 10.06099987030029 L 56.61200714111328 10.96399974822998 C 56.66091918945312 11.30300045013428 56.69525909423828 11.64700031280518 56.69525909423828 12 C 56.69525909423828 12.35299968719482 56.66091918945312 12.69699954986572 56.61200714111328 13.03600025177002 L 58.23956680297852 13.93900012969971 C 58.86186599731445 14.28400039672852 59.07518768310547 15.04899978637695 58.71617889404297 15.64700031280518 L 57.08966827392578 18.35300064086914 C 56.84877395629883 18.75423431396484 56.41123199462891 18.97854423522949 55.96133422851562 18.97850799560547 C 55.74070358276367 18.97849082946777 55.51702117919922 18.92451858520508 55.312255859375 18.81100082397461 L 53.68678665161133 17.90800094604492 C 53.11963653564453 18.33399963378906 52.49317932128906 18.68600082397461 51.81779861450195 18.95000076293945 L 51.81779861450195 20.75 C 51.81779861450195 21.44000053405762 51.23503875732422 22 50.51700592041016 22 Z" stroke="none" fill="#78a8c7"/>
      </g>
    </g>
    <rect id="Rectangle_903" data-name="Rectangle 903" width="24" height="24" transform="translate(931 169)" fill="none"/>
  </g>
</svg>
