<svg xmlns="http://www.w3.org/2000/svg" width="24" height="24" viewBox="0 0 24 24">
  <g id="Group_1516" data-name="Group 1516" transform="translate(-3445.5 905)">
    <rect id="Rectangle_1" data-name="Rectangle 1" width="24" height="24" transform="translate(3445.5 -905)" fill="none"/>
    <g id="Group_1514" data-name="Group 1514" transform="translate(0.68 1.25)">
      <g id="Ellipse_1" data-name="Ellipse 1" transform="translate(3451 -903.25)" fill="none" stroke="#78a8c7" stroke-miterlimit="10" stroke-width="1.5">
        <circle cx="3.5" cy="3.5" r="3.5" stroke="none"/>
        <circle cx="3.5" cy="3.5" r="2.75" fill="none"/>
      </g>
      <path id="Path_1" data-name="Path 1" d="M114.82,9.5a7.5,7.5,0,0,0-7.5,7.42h9.52c.01-.08-.022-.326,0-.7s.09-.8.09-.8h-7.9A6.032,6.032,0,0,1,114.82,11a5.869,5.869,0,0,1,3.45,1.11,2.434,2.434,0,0,1,.595-.547,2.111,2.111,0,0,1,.777-.329A6.6,6.6,0,0,0,114.82,9.5Z" transform="translate(3340 -905)" fill="#78a8c7"/>
      <path id="Subtraction_3" data-name="Subtraction 3" d="M-65.53,16.75h-1.3a.511.511,0,0,1-.521-.5v-.72a3.14,3.14,0,0,1-.747-.418l-.652.361a.535.535,0,0,1-.26.067.527.527,0,0,1-.451-.25l-.65-1.082a.481.481,0,0,1-.053-.375.5.5,0,0,1,.243-.308l.652-.361a2.964,2.964,0,0,1-.033-.415,3.03,3.03,0,0,1,.033-.415l-.652-.362a.5.5,0,0,1-.244-.309.479.479,0,0,1,.054-.374l.65-1.083a.528.528,0,0,1,.452-.25.536.536,0,0,1,.259.067l.652.361a3.106,3.106,0,0,1,.747-.417V9.25a.512.512,0,0,1,.521-.5h1.3a.512.512,0,0,1,.521.5v.72a3.106,3.106,0,0,1,.747.417l.651-.361a.538.538,0,0,1,.26-.067.528.528,0,0,1,.451.25l.651,1.083a.478.478,0,0,1,.054.374.5.5,0,0,1-.244.309l-.651.362a3.035,3.035,0,0,1,.033.415,2.958,2.958,0,0,1-.033.415l.651.361a.5.5,0,0,1,.244.308.48.48,0,0,1-.053.375l-.651,1.082a.526.526,0,0,1-.451.25.537.537,0,0,1-.26-.067l-.651-.361a3.141,3.141,0,0,1-.747.418v.72A.511.511,0,0,1-65.53,16.75Zm-.647-5.55a1.5,1.5,0,0,0-1.5,1.5,1.5,1.5,0,0,0,1.5,1.5,1.5,1.5,0,0,0,1.5-1.5A1.5,1.5,0,0,0-66.177,11.2Z" transform="translate(3528.497 -901.75)" fill="#78a8c7"/>
    </g>
  </g>
</svg>
