<svg xmlns="http://www.w3.org/2000/svg" viewBox="0 0 48 48"><defs><style>.cls-1{fill:none;}.cls-2{fill:#fff;}.cls-3{fill:#06dffc;opacity:0.5;isolation:isolate;}</style></defs><title>BEATFlow_Short_logo</title><g id="Layer_2" data-name="Layer 2"><g id="Layer_1-2" data-name="Layer 1"><rect class="cls-1" width="48" height="48"/><g id="Group_2316-3" data-name="Group 2316-3"><path id="Polygon_1-3" data-name="Polygon 1-3" class="cls-2" d="M30.39,14.41a3.72,3.72,0,0,1,1.32,5.18,3,3,0,0,1-1.32,1.32L20.21,26.85A3.81,3.81,0,0,1,15,25.53a3.34,3.34,0,0,1-.47-1.88V11.77A3.79,3.79,0,0,1,18.32,8a4.36,4.36,0,0,1,1.89.47Z"/><path id="Polygon_2-3" data-name="Polygon 2-3" class="cls-3" d="M31.71,26.1A3.81,3.81,0,0,1,33,31.28a3.56,3.56,0,0,1-1.32,1.32l-11.5,6.88A3.81,3.81,0,0,1,15,38.16a3.51,3.51,0,0,1-.56-2V22.52a3.77,3.77,0,0,1,3.77-3.77,3.92,3.92,0,0,1,2,.56Z"/></g></g></g></svg>