<svg xmlns="http://www.w3.org/2000/svg" viewBox="0 0 107.25 48"><defs><style>.cls-1,.cls-4{isolation:isolate;}.cls-2{fill:#fff;}.cls-3{fill:none;}.cls-4{fill:#06dffc;opacity:0.5;}</style></defs><title>Asset 2</title><g id="Layer_2" data-name="Layer 2"><g id="Layer_1-2" data-name="Layer 1"><g id="Group_1691-3" data-name="Group 1691-3"><g id="Group_1689-3" data-name="Group 1689-3"><g class="cls-1"><path class="cls-2" d="M41.78,8h4.79c4,0,5.86,2.25,5.86,4.82A4.31,4.31,0,0,1,50,16.89v.05a4.61,4.61,0,0,1,3.67,4.62c0,3.11-2.25,5.45-6.52,5.45H41.78Zm4.5,8.25c2.34,0,3.58-1.18,3.58-3.08s-1-3-3.52-3h-2v6.11Zm.7,8.62c2.48,0,4-.95,4-3.28,0-2-1.47-3.2-3.75-3.2H44.35v6.48Z"/><path class="cls-2" d="M57.5,8h9.6l-.78,2.2H60.06v6h6.2v2.19h-6.2v6.41h7.16V27H57.5Z"/><path class="cls-2" d="M76.53,8h1.9L85.81,27H83.05L81.2,22H73.82L72,27H69.29Zm3.86,12L78.6,15l-1.06-3.17h-.06c-.2.69-.52,1.59-1.1,3.2L74.6,19.91Z"/><path class="cls-2" d="M90.65,10.2H85.18V8H99.25l-.78,2.2H93.22V27H90.65Z"/></g><g class="cls-1"><path class="cls-2" d="M41.8,31.66h4.13l-.33.94H42.9v2.58h2.64v.94H42.9V39.8H41.8Z"/><path class="cls-2" d="M48.26,31.05h1.09v7.29c0,.45.13.58.43.58a1.21,1.21,0,0,0,.37-.07l.22.85a2.52,2.52,0,0,1-.9.17,1.09,1.09,0,0,1-1.21-1.22Z"/><path class="cls-2" d="M52.08,36.87a2.79,2.79,0,1,1,5.55,0,2.79,2.79,0,1,1-5.55,0Zm4.42,0c0-1.26-.62-2.16-1.64-2.16s-1.66.9-1.66,2.16S53.82,39,54.85,39,56.5,38.12,56.5,36.87Z"/><path class="cls-2" d="M59.23,34h1.14l1.33,4.44h0L63,34h1l1.36,4.45h0L66.69,34h1.1l-2,5.89h-.89l-1.35-4.45h0l-1.36,4.45h-.93Z"/></g></g></g><rect class="cls-3" width="48" height="48"/><g id="Group_2316-3" data-name="Group 2316-3"><path id="Polygon_1-3" data-name="Polygon 1-3" class="cls-2" d="M30.39,14.41a3.72,3.72,0,0,1,1.32,5.18,3,3,0,0,1-1.32,1.32L20.21,26.85A3.81,3.81,0,0,1,15,25.53a3.34,3.34,0,0,1-.47-1.88V11.77A3.79,3.79,0,0,1,18.32,8a4.36,4.36,0,0,1,1.89.47Z"/><path id="Polygon_2-3" data-name="Polygon 2-3" class="cls-4" d="M31.71,26.1A3.81,3.81,0,0,1,33,31.28a3.56,3.56,0,0,1-1.32,1.32l-11.5,6.88A3.81,3.81,0,0,1,15,38.16a3.51,3.51,0,0,1-.56-2V22.52a3.77,3.77,0,0,1,3.77-3.77,3.92,3.92,0,0,1,2,.56Z"/></g><rect class="cls-3" x="41.78" width="65.46" height="48"/></g></g></svg>