<svg xmlns="http://www.w3.org/2000/svg" width="24" height="24" viewBox="0 0 24 24">
  <g id="Group_1843" data-name="Group 1843" transform="translate(-703 -252)">
    <path id="Path_8" data-name="Path 8" d="M17.743,109.546a6.169,6.169,0,0,1-.418-.522l-.051-.095a.239.239,0,0,1-.031-.114v-3.87a4.771,4.771,0,0,0-2.444-4.135,2.432,2.432,0,0,0,.112-.721,2.708,2.708,0,0,0-2.8-2.608,2.708,2.708,0,0,0-2.8,2.608,2.186,2.186,0,0,0,.092.635,4.627,4.627,0,0,0-1.151.844,4.271,4.271,0,0,0-1.263,3.054v4.107a.254.254,0,0,1-.041.142c-.1.123-.224.266-.336.408-.5.579-.957,1.119-.652,1.7a1.01,1.01,0,0,0,.988.512H9.016a3.3,3.3,0,0,0,3.1,1.992,3.3,3.3,0,0,0,3.1-1.992h2.108a.988.988,0,0,0,.957-.493C18.547,110.457,18.14,109.992,17.743,109.546ZM12.112,98.9a1.232,1.232,0,0,1,1.273,1.186.368.368,0,0,1-.02.152c-.02,0-.031-.009-.051-.009a7.673,7.673,0,0,0-1.344-.123,6.1,6.1,0,0,0-1.11.1.263.263,0,0,1-.02-.123A1.232,1.232,0,0,1,12.112,98.9Zm0,13.155a1.8,1.8,0,0,1-1.334-.569h2.668A1.8,1.8,0,0,1,12.112,112.059Zm-4.226-1.992c.112-.133.224-.266.316-.389a1.53,1.53,0,0,0,.316-.948v-4.107a2.922,2.922,0,0,1,.845-2.077,3.523,3.523,0,0,1,.794-.588,3.76,3.76,0,0,1,1.813-.427,5,5,0,0,1,1.018.095,3.343,3.343,0,0,1,1.018.389,3.4,3.4,0,0,1,1.711,2.931v3.87a1.565,1.565,0,0,0,.214.8l.051.095c.081.123.163.247.255.36Z" transform="translate(703.138 158.518)" fill="#75787b"/>
    <rect id="Rectangle_1014" data-name="Rectangle 1014" width="24" height="24" transform="translate(703 252)" fill="none"/>
  </g>
</svg>
