<svg xmlns="http://www.w3.org/2000/svg" width="24" height="24" viewBox="0 0 24 24">
  <g id="Group_1299" data-name="Group 1299" transform="translate(-1192 -192)">
    <g id="Group_1007" data-name="Group 1007" transform="translate(744 -49)">
      <g id="Group_1287" data-name="Group 1287" transform="translate(448 241)">
        <g id="Path_603" data-name="Path 603" transform="translate(6 7.5)" fill="none">
          <path d="M0,0H12l-.565,10.5a2,2,0,0,1-2,2H2.542a2,2,0,0,1-2-2Z" stroke="none"/>
          <path d="M 1.579495429992676 1.5 L 2.04047966003418 10.42261028289795 L 2.04248046875 10.46127986907959 L 2.04248046875 10.5 C 2.04248046875 10.77569961547852 2.266779899597168 11 2.54248046875 11 L 9.435060501098633 11 C 9.710760116577148 11 9.935060501098633 10.77569961547852 9.935060501098633 10.5 L 9.935060501098633 10.45968055725098 L 9.937230110168457 10.41940975189209 L 10.41712856292725 1.5 L 1.579495429992676 1.5 M 0 0 L 12 0 L 11.43506050109863 10.5 C 11.43506050109863 11.60457038879395 10.53962993621826 12.5 9.435060501098633 12.5 L 2.54248046875 12.5 C 1.437910079956055 12.5 0.54248046875 11.60457038879395 0.54248046875 10.5 L 0 0 Z" stroke="none" fill="#75787b"/>
        </g>
        <g id="Rectangle_864" data-name="Rectangle 864" transform="translate(8 4)" fill="none" stroke="#75787b" stroke-width="1.5">
          <path d="M2,0H6A2,2,0,0,1,8,2V5A0,0,0,0,1,8,5H0A0,0,0,0,1,0,5V2A2,2,0,0,1,2,0Z" stroke="none"/>
          <path d="M2,.75H6A1.25,1.25,0,0,1,7.25,2V3.5a.75.75,0,0,1-.75.75h-5A.75.75,0,0,1,.75,3.5V2A1.25,1.25,0,0,1,2,.75Z" fill="none"/>
        </g>
        <g id="Rectangle_861" data-name="Rectangle 861" transform="translate(5 7.5)" fill="#707070" stroke="#75787b" stroke-width="1">
          <rect width="14" height="1.5" rx="0.75" stroke="none"/>
          <rect x="0.5" y="0.5" width="13" height="0.5" rx="0.25" fill="none"/>
        </g>
        <g id="Rectangle_862" data-name="Rectangle 862" transform="translate(10 11.5)" fill="#fff" stroke="#75787b" stroke-width="1">
          <rect width="1" height="5" rx="0.5" stroke="none"/>
          <rect x="0.5" y="0.5" height="4" fill="none"/>
        </g>
        <g id="Rectangle_863" data-name="Rectangle 863" transform="translate(13 11.5)" fill="#fff" stroke="#75787b" stroke-width="1">
          <rect width="1" height="5" rx="0.5" stroke="none"/>
          <rect x="0.5" y="0.5" height="4" fill="none"/>
        </g>
      </g>
    </g>
    <rect id="Rectangle_871" data-name="Rectangle 871" width="24" height="24" transform="translate(1192 192)" fill="none"/>
  </g>
</svg>
