<svg xmlns="http://www.w3.org/2000/svg" width="24" height="24" viewBox="0 0 24 24">
  <g id="Filter_icon" data-name="Filter icon" transform="translate(-557 -182)">
    <g id="Group_1292" data-name="Group 1292" transform="translate(-1)">
      <rect id="Rectangle_871" data-name="Rectangle 871" width="24" height="24" transform="translate(558 182)" fill="none"/>
    </g>
    <g id="Combined_Shape" data-name="Combined Shape" transform="translate(562.781 187)" fill="none" stroke-miterlimit="10">
      <path d="M3.969,11.75V6.506L.406,2.6A1.556,1.556,0,0,1,1.554,0h9.315a1.555,1.555,0,0,1,1.148,2.6L8.469,6.491v5.26a2.25,2.25,0,1,1-4.5,0Z" stroke="none"/>
      <path d="M 6.219000339508057 12.50040054321289 C 6.632550239562988 12.50040054321289 6.969000339508057 12.16394996643066 6.969000339508057 11.75040054321289 L 6.969000339508057 6.4905104637146 L 6.969000339508057 5.908650398254395 L 7.361370086669922 5.479000091552734 L 10.91069030761719 1.592420220375061 C 10.92300987243652 1.578940272331238 10.92728996276855 1.570590257644653 10.92776012420654 1.56911027431488 C 10.92954063415527 1.562140226364136 10.92508029937744 1.534730315208435 10.90837001800537 1.513230323791504 C 10.90006065368652 1.502540230751038 10.89807987213135 1.500000238418579 10.86929988861084 1.500000238418579 L 1.55430018901825 1.500000238418579 C 1.526020288467407 1.500000238418579 1.518420219421387 1.500000238418579 1.503800272941589 1.533160328865051 C 1.489150285720825 1.5663902759552 1.494770288467407 1.572550296783447 1.513530254364014 1.593090295791626 L 5.076630115509033 5.494770050048828 L 5.469000339508057 5.924420356750488 L 5.469000339508057 6.506280422210693 L 5.469000339508057 11.75040054321289 C 5.469000339508057 12.16394996643066 5.805450439453125 12.50040054321289 6.219000339508057 12.50040054321289 M 6.219000339508057 14.00040054321289 C 4.976100444793701 14.00040054321289 3.969000339508057 12.99330043792725 3.969000339508057 11.75040054321289 L 3.969000339508057 6.506280422210693 L 0.405900239944458 2.604600191116333 C -0.5057997703552246 1.606500267982483 0.2025002390146255 2.716064386731887e-07 1.55430018901825 2.716064386731887e-07 L 10.86929988861084 2.716064386731887e-07 C 12.22109985351562 2.716064386731887e-07 12.93029975891113 1.606500267982483 12.0177001953125 2.604600191116333 L 8.468999862670898 6.4905104637146 L 8.468999862670898 11.75040054321289 C 8.468999862670898 12.99330043792725 7.461000442504883 14.00040054321289 6.219000339508057 14.00040054321289 Z" stroke="none" fill="#75787b"/>
    </g>
  </g>
</svg>
